<svg id="Layer_1" data-name="Layer 1" xmlns="http://www.w3.org/2000/svg" viewBox="0 0 361.61 602.08"><defs><style>.cls-1{fill:#5597c4;}.cls-2{fill:#e67e22;}.cls-3{fill:#e74c3c;}.cls-4{fill:#f4d03f;}</style></defs><title>master-card2</title><path class="cls-1" d="M364.33,26.31l.05,11.81.45,408.78v64.63l.12,54.4L271.26,606l-47.09,0-21.42,0-.08,0-82.63.15-94,.11a21.84,21.84,0,0,1-21.95-20.8A3,3,0,0,1,4,584.27L3.85,480.44l-.4-382.2-.1-71.53a21.75,21.75,0,0,1,12.75-20l.09,0a21.51,21.51,0,0,1,9.14-2l63.3,0,83.55-.14,3.45-.05,166.62-.18a22,22,0,0,1,22.08,22Z" transform="translate(-3.35 -4.25)"/><rect class="cls-2" x="320.54" y="52.79" width="23.34" height="41.95" transform="translate(242.82 398.76) rotate(-87.87)"/><path class="cls-3" d="M331.83,83.94a26.64,26.64,0,0,1-20.58-11,26.68,26.68,0,1,0,41.92,1.55A26.64,26.64,0,0,1,331.83,83.94Z" transform="translate(-3.35 -4.25)"/><path class="cls-4" d="M333.81,30.63a26.66,26.66,0,0,1,19.36,43.9A26.67,26.67,0,0,0,311.25,73a26.66,26.66,0,0,1,22.56-42.35Z" transform="translate(-3.35 -4.25)"/></svg>